<?xml version="1.0" standalone="no"?>
<!DOCTYPE svg PUBLIC "-//W3C//DTD SVG 20010904//EN"
 "http://www.w3.org/TR/2001/REC-SVG-20010904/DTD/svg10.dtd">
<svg version="1.0" xmlns="http://www.w3.org/2000/svg"
 width="260.000000pt" height="260.000000pt" viewBox="0 0 260.000000 260.000000"
 preserveAspectRatio="xMidYMid meet">
<metadata>
Created by potrace 1.14, written by Peter Selinger 2001-2017
</metadata>
<g transform="translate(0.000000,260.000000) scale(0.100000,-0.100000)"
fill="#000000" stroke="none">
<path d="M625 2304 c-8 -9 -15 -27 -15 -42 0 -34 -31 -100 -59 -129 -29 -31
-72 -52 -118 -58 -57 -9 -63 -12 -63 -38 0 -31 16 -43 60 -46 47 -2 114 -44
145 -89 14 -20 28 -58 31 -84 8 -57 25 -75 57 -61 17 8 23 20 25 48 7 98 75
165 197 191 61 14 58 74 -4 74 -38 1 -110 36 -138 68 -30 34 -53 86 -53 121 0
47 -37 72 -65 45z m116 -264 c5 0 -14 -22 -42 -49 l-51 -50 -47 46 -46 46 45
46 45 46 44 -42 c24 -24 48 -43 52 -43z"/>
<path d="M175 2061 c-41 -13 -91 -45 -117 -75 -58 -66 -58 -64 -58 -730 1
-471 4 -619 14 -647 21 -58 64 -107 122 -135 l54 -26 647 0 c357 1 694 1 750
2 89 0 104 2 112 19 7 13 6 24 -3 37 -13 17 -47 18 -758 19 l-744 0 -41 27
c-80 52 -77 27 -77 693 0 325 3 606 7 626 12 60 76 115 142 122 49 6 70 38 43
65 -13 13 -59 14 -93 3z"/>
<path d="M1073 2063 c-7 -2 -13 -15 -13 -28 0 -13 6 -27 13 -32 6 -4 307 -8
667 -9 429 -1 664 -5 680 -11 40 -17 87 -71 97 -111 4 -21 8 -302 7 -627 0
-550 -2 -593 -19 -628 -25 -54 -77 -85 -149 -91 -69 -6 -91 -27 -67 -65 13
-20 113 -15 165 7 22 11 57 35 78 55 69 70 68 59 68 747 -1 614 -1 615 -23
658 -12 24 -37 58 -55 77 -65 66 -53 65 -781 64 -361 0 -662 -3 -668 -6z"/>
<path d="M544 1609 c-12 -20 -8 -689 4 -701 13 -13 220 -19 262 -8 26 7 40 44
22 62 -5 5 -57 9 -114 9 l-104 -1 1 307 c1 170 -3 316 -7 326 -10 19 -53 23
-64 6z"/>
<path d="M962 1608 c-6 -8 -10 -109 -10 -265 0 -240 1 -255 23 -300 73 -159
289 -195 430 -72 71 63 76 86 77 374 0 139 -3 258 -7 264 -9 15 -52 14 -62 -1
-4 -7 -8 -121 -9 -253 -1 -132 -2 -248 -3 -257 -2 -29 -67 -93 -110 -110 -86
-34 -196 0 -241 75 -18 30 -20 51 -20 283 0 181 -3 253 -12 262 -16 16 -43 15
-56 0z"/>
<path d="M1639 1604 c-16 -19 -8 -33 111 -200 l87 -121 -38 -54 c-21 -30 -43
-61 -49 -69 -6 -8 -42 -60 -80 -114 -39 -55 -70 -105 -70 -111 0 -6 6 -18 13
-27 23 -30 54 -2 157 146 56 80 105 148 110 151 4 2 56 -64 115 -148 58 -83
115 -155 126 -159 14 -5 23 -1 35 17 16 24 14 27 -85 167 -55 79 -104 148
-109 154 -35 40 -33 45 59 174 117 163 122 172 105 195 -24 33 -57 11 -121
-81 -33 -48 -74 -107 -91 -131 l-31 -44 -84 122 c-46 66 -90 127 -97 135 -18
19 -46 18 -63 -2z"/>
<path d="M1966 674 c-9 -8 -16 -28 -16 -43 0 -16 -10 -41 -22 -56 -22 -29 -83
-60 -98 -50 -11 7 -40 -22 -40 -39 0 -19 18 -31 67 -44 50 -15 93 -62 93 -102
0 -35 34 -64 60 -50 10 5 20 27 24 49 9 56 41 89 101 105 40 10 51 17 53 35 5
30 -7 41 -49 48 -59 9 -109 62 -109 115 0 17 -8 31 -19 38 -25 13 -27 13 -45
-6z m58 -198 c-9 -23 -35 -28 -56 -10 -18 17 -18 18 4 41 21 23 22 23 40 4 10
-11 15 -27 12 -35z"/>
</g>
</svg>
